<svg width="133" height="133" viewBox="0 0 133 133" fill="none" xmlns="http://www.w3.org/2000/svg">
<path d="M45.7676 57.2866C46.2038 57.2866 46.5644 57.4292 46.8496 57.7144C47.1348 57.9996 47.2774 58.3686 47.2774 58.8215V69.4651C47.2774 69.9013 47.1348 70.2703 46.8496 70.5722C46.5644 70.8574 46.2038 71 45.7676 71C45.3315 71 44.9708 70.8574 44.6857 70.5722C44.4005 70.2703 44.2579 69.9013 44.2579 69.4651V68.2322L44.8115 68.4586C44.8115 68.6767 44.694 68.9451 44.4592 69.2638C44.2244 69.5658 43.9056 69.8677 43.503 70.1697C43.1004 70.4716 42.6224 70.7316 42.0688 70.9497C41.532 71.151 40.9449 71.2516 40.3074 71.2516C39.15 71.2516 38.1016 70.9581 37.1622 70.3709C36.2228 69.7671 35.4763 68.9451 34.9228 67.9051C34.386 66.8483 34.1176 65.6405 34.1176 64.2817C34.1176 62.9062 34.386 61.6984 34.9228 60.6584C35.4763 59.6016 36.2144 58.7796 37.137 58.1925C38.0596 57.5886 39.0829 57.2866 40.2068 57.2866C40.9281 57.2866 41.5907 57.3957 42.1946 57.6138C42.7985 57.8318 43.3185 58.1086 43.7547 58.4441C44.2076 58.7796 44.5515 59.1235 44.7863 59.4757C45.0379 59.8112 45.1637 60.0964 45.1637 60.3313L44.2579 60.6584V58.8215C44.2579 58.3854 44.4005 58.0247 44.6857 57.7396C44.9708 57.4376 45.3315 57.2866 45.7676 57.2866ZM40.6849 68.4838C41.423 68.4838 42.0688 68.2993 42.6224 67.9302C43.1759 67.5612 43.6037 67.0579 43.9056 66.4205C44.2244 65.7831 44.3837 65.0701 44.3837 64.2817C44.3837 63.4765 44.2244 62.7552 43.9056 62.1178C43.6037 61.4803 43.1759 60.9771 42.6224 60.608C42.0688 60.239 41.423 60.0545 40.6849 60.0545C39.9636 60.0545 39.3261 60.239 38.7726 60.608C38.219 60.9771 37.7829 61.4803 37.4641 62.1178C37.1622 62.7552 37.0112 63.4765 37.0112 64.2817C37.0112 65.0701 37.1622 65.7831 37.4641 66.4205C37.7829 67.0579 38.219 67.5612 38.7726 67.9302C39.3261 68.2993 39.9636 68.4838 40.6849 68.4838ZM53.8177 69.4651C53.8177 69.9013 53.6668 70.2703 53.3648 70.5722C53.0796 70.8574 52.719 71 52.2828 71C51.8635 71 51.5112 70.8574 51.226 70.5722C50.9409 70.2703 50.7983 69.9013 50.7983 69.4651V53.9149C50.7983 53.4788 50.9409 53.1181 51.226 52.8329C51.528 52.531 51.897 52.38 52.3332 52.38C52.7693 52.38 53.1216 52.531 53.39 52.8329C53.6752 53.1181 53.8177 53.4788 53.8177 53.9149V69.4651ZM60.5997 69.4651C60.5997 69.9013 60.4487 70.2703 60.1468 70.5722C59.8616 70.8574 59.501 71 59.0648 71C58.6455 71 58.2932 70.8574 58.008 70.5722C57.7228 70.2703 57.5803 69.9013 57.5803 69.4651V53.9149C57.5803 53.4788 57.7228 53.1181 58.008 52.8329C58.31 52.531 58.679 52.38 59.1151 52.38C59.5513 52.38 59.9036 52.531 60.172 52.8329C60.4571 53.1181 60.5997 53.4788 60.5997 53.9149V69.4651ZM75.1316 57.2866C75.5678 57.2866 75.9284 57.4292 76.2136 57.7144C76.4988 57.9996 76.6414 58.3686 76.6414 58.8215V69.4651C76.6414 69.9013 76.4988 70.2703 76.2136 70.5722C75.9284 70.8574 75.5678 71 75.1316 71C74.6955 71 74.3348 70.8574 74.0497 70.5722C73.7645 70.2703 73.6219 69.9013 73.6219 69.4651V68.2322L74.1755 68.4586C74.1755 68.6767 74.058 68.9451 73.8232 69.2638C73.5883 69.5658 73.2696 69.8677 72.867 70.1697C72.4644 70.4716 71.9864 70.7316 71.4328 70.9497C70.896 71.151 70.3089 71.2516 69.6714 71.2516C68.514 71.2516 67.4656 70.9581 66.5262 70.3709C65.5868 69.7671 64.8403 68.9451 64.2868 67.9051C63.75 66.8483 63.4816 65.6405 63.4816 64.2817C63.4816 62.9062 63.75 61.6984 64.2868 60.6584C64.8403 59.6016 65.5784 58.7796 66.501 58.1925C67.4236 57.5886 68.4469 57.2866 69.5708 57.2866C70.2921 57.2866 70.9547 57.3957 71.5586 57.6138C72.1625 57.8318 72.6825 58.1086 73.1187 58.4441C73.5716 58.7796 73.9155 59.1235 74.1503 59.4757C74.4019 59.8112 74.5277 60.0964 74.5277 60.3313L73.6219 60.6584V58.8215C73.6219 58.3854 73.7645 58.0247 74.0497 57.7396C74.3348 57.4376 74.6955 57.2866 75.1316 57.2866ZM70.0489 68.4838C70.787 68.4838 71.4328 68.2993 71.9864 67.9302C72.5399 67.5612 72.9677 67.0579 73.2696 66.4205C73.5883 65.7831 73.7477 65.0701 73.7477 64.2817C73.7477 63.4765 73.5883 62.7552 73.2696 62.1178C72.9677 61.4803 72.5399 60.9771 71.9864 60.608C71.4328 60.239 70.787 60.0545 70.0489 60.0545C69.3276 60.0545 68.6901 60.239 68.1366 60.608C67.583 60.9771 67.1468 61.4803 66.8281 62.1178C66.5262 62.7552 66.3752 63.4765 66.3752 64.2817C66.3752 65.0701 66.5262 65.7831 66.8281 66.4205C67.1468 67.0579 67.583 67.5612 68.1366 67.9302C68.6901 68.2993 69.3276 68.4838 70.0489 68.4838ZM87.107 57.2866C88.3484 57.2866 89.2877 57.5467 89.9252 58.0667C90.5794 58.5867 91.0239 59.2828 91.2588 60.1551C91.5104 61.0106 91.6362 61.9668 91.6362 63.0236V69.4651C91.6362 69.9013 91.4936 70.2703 91.2084 70.5722C90.9233 70.8574 90.5626 71 90.1265 71C89.6903 71 89.3297 70.8574 89.0445 70.5722C88.7593 70.2703 88.6167 69.9013 88.6167 69.4651V63.0236C88.6167 62.47 88.5413 61.9752 88.3903 61.539C88.2561 61.0861 88.0045 60.7255 87.6354 60.4571C87.2664 60.1887 86.738 60.0545 86.0502 60.0545C85.3792 60.0545 84.8089 60.1887 84.3392 60.4571C83.8863 60.7255 83.534 61.0861 83.2824 61.539C83.0475 61.9752 82.9301 62.47 82.9301 63.0236V69.4651C82.9301 69.9013 82.7875 70.2703 82.5024 70.5722C82.2172 70.8574 81.8565 71 81.4204 71C80.9842 71 80.6236 70.8574 80.3384 70.5722C80.0532 70.2703 79.9107 69.9013 79.9107 69.4651V59.0732C79.9107 58.637 80.0532 58.2764 80.3384 57.9912C80.6236 57.6892 80.9842 57.5383 81.4204 57.5383C81.8565 57.5383 82.2172 57.6892 82.5024 57.9912C82.7875 58.2764 82.9301 58.637 82.9301 59.0732V60.1551L82.5527 60.0796C82.7036 59.7945 82.9217 59.4925 83.2069 59.1738C83.4921 58.8383 83.8276 58.528 84.2134 58.2428C84.5992 57.9576 85.0353 57.7312 85.5218 57.5634C86.0083 57.3789 86.5367 57.2866 87.107 57.2866ZM97.1173 64.6981L94.6105 70.5938C94.5564 70.7408 94.4713 70.8569 94.3552 70.942C94.2469 71.0193 94.127 71.058 93.9954 71.058C93.7865 71.058 93.6318 71 93.5312 70.8839C93.4306 70.7679 93.3803 70.6248 93.3803 70.4545C93.3803 70.3849 93.3919 70.3114 93.4151 70.234L96.3049 63.2939C96.3668 63.1391 96.4597 63.0192 96.5835 62.9341C96.715 62.849 96.8543 62.8142 97.0013 62.8296C97.1405 62.8296 97.2682 62.8722 97.3843 62.9573C97.5081 63.0347 97.597 63.1469 97.6512 63.2939L100.506 70.0948C100.545 70.1953 100.564 70.2882 100.564 70.3733C100.564 70.5822 100.495 70.7485 100.355 70.8723C100.224 70.9961 100.077 71.058 99.9143 71.058C99.775 71.058 99.6474 71.0155 99.5313 70.9304C99.423 70.8453 99.3379 70.7292 99.276 70.5822L96.7808 64.7678L97.1173 64.6981ZM94.9703 69.1779L95.6086 67.8433H98.7421L98.9626 69.1779H94.9703ZM104.646 64.6749C105.187 64.6749 105.671 64.8142 106.096 65.0927C106.53 65.3635 106.87 65.7388 107.118 66.2185C107.373 66.6982 107.501 67.2553 107.501 67.8897C107.501 68.5241 107.373 69.0851 107.118 69.5725C106.87 70.0522 106.533 70.4313 106.108 70.7099C105.69 70.9807 105.218 71.1161 104.692 71.1161C104.383 71.1161 104.092 71.0658 103.822 70.9652C103.551 70.8646 103.311 70.7369 103.102 70.5822C102.901 70.4275 102.742 70.2727 102.626 70.118C102.518 69.9555 102.464 69.8201 102.464 69.7118L102.823 69.5609V70.4081C102.823 70.6093 102.758 70.7795 102.626 70.9188C102.495 71.0503 102.328 71.1161 102.127 71.1161C101.926 71.1161 101.76 71.0503 101.628 70.9188C101.497 70.7872 101.431 70.617 101.431 70.4081V63.1198C101.431 62.9186 101.497 62.7523 101.628 62.6207C101.76 62.4815 101.926 62.4118 102.127 62.4118C102.328 62.4118 102.495 62.4815 102.626 62.6207C102.758 62.7523 102.823 62.9186 102.823 63.1198V66.0676L102.626 65.9632C102.626 65.8626 102.68 65.7427 102.789 65.6034C102.897 65.4564 103.044 65.3132 103.23 65.174C103.415 65.027 103.628 64.9071 103.868 64.8142C104.116 64.7214 104.375 64.6749 104.646 64.6749ZM104.471 65.9516C104.131 65.9516 103.833 66.0367 103.578 66.2069C103.323 66.3771 103.121 66.6092 102.974 66.9032C102.835 67.1895 102.765 67.5183 102.765 67.8897C102.765 68.2533 102.835 68.586 102.974 68.8878C103.121 69.1818 103.323 69.4139 103.578 69.5841C103.833 69.7543 104.131 69.8394 104.471 69.8394C104.812 69.8394 105.106 69.7543 105.354 69.5841C105.609 69.4139 105.806 69.1818 105.945 68.8878C106.092 68.586 106.166 68.2533 106.166 67.8897C106.166 67.5183 106.092 67.1895 105.945 66.9032C105.806 66.6092 105.609 66.3771 105.354 66.2069C105.106 66.0367 104.812 65.9516 104.471 65.9516ZM109.415 71C109.214 71 109.047 70.9342 108.916 70.8027C108.784 70.6634 108.718 70.4932 108.718 70.2921V65.4989C108.718 65.2978 108.784 65.1314 108.916 64.9999C109.047 64.8606 109.214 64.791 109.415 64.791C109.616 64.791 109.782 64.8606 109.914 64.9999C110.045 65.1314 110.111 65.2978 110.111 65.4989V66.5899L110.03 65.8123C110.115 65.6266 110.223 65.4641 110.355 65.3249C110.494 65.1778 110.649 65.0579 110.819 64.9651C110.989 64.8645 111.171 64.791 111.364 64.7446C111.558 64.6981 111.751 64.6749 111.945 64.6749C112.177 64.6749 112.37 64.7407 112.525 64.8722C112.687 65.0038 112.769 65.1585 112.769 65.3365C112.769 65.5918 112.703 65.7775 112.571 65.8935C112.44 66.0018 112.297 66.056 112.142 66.056C111.995 66.056 111.86 66.0289 111.736 65.9748C111.62 65.9206 111.484 65.8935 111.33 65.8935C111.19 65.8935 111.047 65.9283 110.9 65.998C110.761 66.0599 110.629 66.1605 110.506 66.2997C110.39 66.439 110.293 66.6131 110.215 66.822C110.146 67.0231 110.111 67.263 110.111 67.5415V70.2921C110.111 70.4932 110.045 70.6634 109.914 70.8027C109.782 70.9342 109.616 71 109.415 71ZM116.414 71.1161C115.757 71.1161 115.184 70.9807 114.697 70.7099C114.217 70.4313 113.846 70.0561 113.583 69.5841C113.327 69.1122 113.2 68.5783 113.2 67.9825C113.2 67.2862 113.339 66.6943 113.617 66.2069C113.904 65.7117 114.275 65.3326 114.732 65.0695C115.188 64.8065 115.672 64.6749 116.182 64.6749C116.577 64.6749 116.948 64.7562 117.296 64.9187C117.652 65.0811 117.966 65.3055 118.236 65.5918C118.507 65.8703 118.72 66.1953 118.875 66.5667C119.037 66.938 119.119 67.3326 119.119 67.7504C119.111 67.9361 119.037 68.087 118.898 68.203C118.759 68.3191 118.596 68.3771 118.411 68.3771H113.977L113.629 67.2166H117.888L117.633 67.4487V67.1353C117.618 66.911 117.536 66.7098 117.389 66.5318C117.25 66.3539 117.072 66.2146 116.855 66.114C116.647 66.0057 116.422 65.9516 116.182 65.9516C115.95 65.9516 115.734 65.9825 115.532 66.0444C115.331 66.1063 115.157 66.2107 115.01 66.3578C114.863 66.5048 114.747 66.7021 114.662 66.9496C114.577 67.1972 114.534 67.5106 114.534 67.8897C114.534 68.3075 114.619 68.6634 114.79 68.9574C114.968 69.2437 115.192 69.4642 115.463 69.6189C115.741 69.7659 116.035 69.8394 116.345 69.8394C116.631 69.8394 116.859 69.8162 117.029 69.7698C117.2 69.7234 117.335 69.6692 117.436 69.6073C117.544 69.5377 117.641 69.4797 117.726 69.4332C117.865 69.3636 117.997 69.3288 118.12 69.3288C118.291 69.3288 118.43 69.3868 118.538 69.5029C118.654 69.6189 118.712 69.7543 118.712 69.9091C118.712 70.118 118.604 70.3075 118.387 70.4777C118.186 70.648 117.904 70.7988 117.54 70.9304C117.176 71.0542 116.801 71.1161 116.414 71.1161ZM124.943 64.791C125.144 64.791 125.31 64.8606 125.442 64.9999C125.573 65.1314 125.639 65.2978 125.639 65.4989V68.4468C125.639 69.2669 125.411 69.9168 124.954 70.3965C124.498 70.8762 123.84 71.1161 122.981 71.1161C122.123 71.1161 121.465 70.8762 121.008 70.3965C120.56 69.9168 120.335 69.2669 120.335 68.4468V65.4989C120.335 65.2978 120.401 65.1314 120.533 64.9999C120.664 64.8606 120.83 64.791 121.032 64.791C121.233 64.791 121.399 64.8606 121.531 64.9999C121.662 65.1314 121.728 65.2978 121.728 65.4989V68.4468C121.728 68.9187 121.832 69.2708 122.041 69.5029C122.25 69.7273 122.564 69.8394 122.981 69.8394C123.407 69.8394 123.724 69.7273 123.933 69.5029C124.142 69.2708 124.246 68.9187 124.246 68.4468V65.4989C124.246 65.2978 124.312 65.1314 124.444 64.9999C124.575 64.8606 124.742 64.791 124.943 64.791Z" fill="white"/>
<path d="M36.2927 75.2773C36.6917 75.2773 37.0382 75.3193 37.3322 75.4033C37.6332 75.4873 37.8642 75.6063 38.0252 75.7603C38.1932 75.9073 38.2772 76.0858 38.2772 76.2959C38.2772 76.4359 38.2352 76.5689 38.1512 76.6949C38.0672 76.8139 37.9447 76.8734 37.7837 76.8734C37.6717 76.8734 37.5772 76.8594 37.5002 76.8314C37.4302 76.7964 37.3672 76.7544 37.3112 76.7054C37.2552 76.6564 37.1887 76.6109 37.1117 76.5689C37.0417 76.5269 36.9332 76.4954 36.7862 76.4744C36.6462 76.4464 36.5412 76.4324 36.4712 76.4324C36.1142 76.4324 35.8097 76.5094 35.5577 76.6634C35.3127 76.8174 35.1236 77.0274 34.9906 77.2934C34.8576 77.5524 34.7911 77.8534 34.7911 78.1964C34.7911 78.5324 34.8576 78.8334 34.9906 79.0994C35.1306 79.3584 35.3197 79.565 35.5577 79.719C35.8027 79.873 36.0827 79.95 36.3977 79.95C36.5727 79.95 36.7232 79.9395 36.8492 79.9185C36.9752 79.8975 37.0802 79.866 37.1642 79.824C37.2622 79.768 37.3497 79.7085 37.4267 79.6455C37.5037 79.5825 37.6192 79.551 37.7732 79.551C37.9552 79.551 38.0952 79.6105 38.1932 79.7295C38.2912 79.8415 38.3402 79.9815 38.3402 80.1495C38.3402 80.3245 38.2422 80.4855 38.0462 80.6325C37.8502 80.7725 37.5912 80.888 37.2692 80.979C36.9542 81.063 36.6112 81.105 36.2402 81.105C35.6872 81.105 35.2076 80.979 34.8016 80.727C34.3956 80.468 34.0806 80.118 33.8566 79.677C33.6396 79.2359 33.5311 78.7424 33.5311 78.1964C33.5311 77.6224 33.6466 77.1184 33.8776 76.6844C34.1156 76.2434 34.4411 75.9003 34.8541 75.6553C35.2742 75.4033 35.7537 75.2773 36.2927 75.2773ZM44.6985 78.1964C44.6985 78.7704 44.569 79.2779 44.31 79.719C44.058 80.153 43.715 80.4925 43.281 80.7375C42.854 80.9825 42.3744 81.105 41.8424 81.105C41.3104 81.105 40.8274 80.9825 40.3934 80.7375C39.9664 80.4925 39.6234 80.153 39.3644 79.719C39.1123 79.2779 38.9863 78.7704 38.9863 78.1964C38.9863 77.6224 39.1123 77.1184 39.3644 76.6844C39.6234 76.2434 39.9664 75.9003 40.3934 75.6553C40.8274 75.4033 41.3104 75.2773 41.8424 75.2773C42.3744 75.2773 42.854 75.4033 43.281 75.6553C43.715 75.9003 44.058 76.2434 44.31 76.6844C44.569 77.1184 44.6985 77.6224 44.6985 78.1964ZM43.4385 78.1964C43.4385 77.8394 43.365 77.5314 43.218 77.2724C43.078 77.0064 42.8855 76.7999 42.6405 76.6529C42.4024 76.5059 42.1364 76.4324 41.8424 76.4324C41.5484 76.4324 41.2789 76.5059 41.0339 76.6529C40.7959 76.7999 40.6034 77.0064 40.4564 77.2724C40.3164 77.5314 40.2464 77.8394 40.2464 78.1964C40.2464 78.5464 40.3164 78.8544 40.4564 79.1204C40.6034 79.3795 40.7959 79.5825 41.0339 79.7295C41.2789 79.8765 41.5484 79.95 41.8424 79.95C42.1364 79.95 42.4024 79.8765 42.6405 79.7295C42.8855 79.5825 43.078 79.3795 43.218 79.1204C43.365 78.8544 43.4385 78.5464 43.4385 78.1964ZM48.7519 75.2773C49.3119 75.2773 49.7249 75.4138 49.9909 75.6868C50.2569 75.9528 50.4319 76.2994 50.5159 76.7264L50.3374 76.6319L50.4214 76.4639C50.5054 76.3029 50.6349 76.1314 50.8099 75.9493C50.985 75.7603 51.195 75.6028 51.44 75.4768C51.692 75.3438 51.972 75.2773 52.28 75.2773C52.784 75.2773 53.1655 75.3858 53.4245 75.6028C53.6905 75.8198 53.8725 76.1104 53.9705 76.4744C54.0685 76.8314 54.1175 77.2304 54.1175 77.6714V80.3595C54.1175 80.5415 54.058 80.6955 53.939 80.8215C53.82 80.9405 53.6695 81 53.4875 81C53.3055 81 53.155 80.9405 53.036 80.8215C52.917 80.6955 52.8575 80.5415 52.8575 80.3595V77.6714C52.8575 77.4404 52.8295 77.2339 52.7735 77.0519C52.7175 76.8629 52.616 76.7124 52.469 76.6004C52.322 76.4884 52.112 76.4324 51.839 76.4324C51.573 76.4324 51.3455 76.4884 51.1565 76.6004C50.9675 76.7124 50.8239 76.8629 50.7259 77.0519C50.6349 77.2339 50.5894 77.4404 50.5894 77.6714V80.3595C50.5894 80.5415 50.5299 80.6955 50.4109 80.8215C50.2919 80.9405 50.1414 81 49.9594 81C49.7774 81 49.6269 80.9405 49.5079 80.8215C49.3889 80.6955 49.3294 80.5415 49.3294 80.3595V77.6714C49.3294 77.4404 49.3014 77.2339 49.2454 77.0519C49.1894 76.8629 49.0879 76.7124 48.9409 76.6004C48.7939 76.4884 48.5839 76.4324 48.3109 76.4324C48.0449 76.4324 47.8174 76.4884 47.6284 76.6004C47.4393 76.7124 47.2958 76.8629 47.1978 77.0519C47.1068 77.2339 47.0613 77.4404 47.0613 77.6714V80.3595C47.0613 80.5415 47.0018 80.6955 46.8828 80.8215C46.7638 80.9405 46.6133 81 46.4313 81C46.2493 81 46.0988 80.9405 45.9798 80.8215C45.8608 80.6955 45.8013 80.5415 45.8013 80.3595V76.0228C45.8013 75.8408 45.8608 75.6903 45.9798 75.5713C46.0988 75.4453 46.2493 75.3823 46.4313 75.3823C46.6133 75.3823 46.7638 75.4453 46.8828 75.5713C47.0018 75.6903 47.0613 75.8408 47.0613 76.0228V76.4744L46.9038 76.4429C46.9668 76.3239 47.0543 76.1979 47.1663 76.0648C47.2783 75.9248 47.4148 75.7953 47.5758 75.6763C47.7369 75.5573 47.9154 75.4628 48.1114 75.3928C48.3074 75.3158 48.5209 75.2773 48.7519 75.2773ZM56.0378 80.9895C55.8348 80.9895 55.6773 80.937 55.5653 80.832C55.4603 80.72 55.4078 80.5625 55.4078 80.3595V80.181C55.4078 79.978 55.4603 79.824 55.5653 79.719C55.6773 79.607 55.8348 79.551 56.0378 79.551H56.1743C56.3773 79.551 56.5313 79.607 56.6363 79.719C56.7483 79.824 56.8043 79.978 56.8043 80.181V80.3595C56.8043 80.5625 56.7483 80.72 56.6363 80.832C56.5313 80.937 56.3773 80.9895 56.1743 80.9895H56.0378ZM61.0047 75.2773C61.4947 75.2773 61.9322 75.4033 62.3172 75.6553C62.7092 75.9003 63.0173 76.2399 63.2413 76.6739C63.4723 77.1079 63.5878 77.6119 63.5878 78.1859C63.5878 78.7599 63.4723 79.2674 63.2413 79.7085C63.0173 80.1425 62.7127 80.4855 62.3277 80.7375C61.9497 80.9825 61.5227 81.105 61.0467 81.105C60.7667 81.105 60.5042 81.0595 60.2592 80.9685C60.0142 80.8775 59.7972 80.762 59.6082 80.622C59.4261 80.482 59.2826 80.342 59.1776 80.202C59.0796 80.055 59.0306 79.9325 59.0306 79.8345L59.3561 79.698V80.4645C59.3561 80.6465 59.2966 80.8005 59.1776 80.9265C59.0586 81.0455 58.9081 81.105 58.7261 81.105C58.5441 81.105 58.3936 81.0455 58.2746 80.9265C58.1556 80.8075 58.0961 80.6535 58.0961 80.4645V73.8703C58.0961 73.6883 58.1556 73.5378 58.2746 73.4188C58.3936 73.2928 58.5441 73.2298 58.7261 73.2298C58.9081 73.2298 59.0586 73.2928 59.1776 73.4188C59.2966 73.5378 59.3561 73.6883 59.3561 73.8703V76.5374L59.1776 76.4429C59.1776 76.3519 59.2266 76.2434 59.3246 76.1174C59.4226 75.9843 59.5556 75.8548 59.7237 75.7288C59.8917 75.5958 60.0842 75.4873 60.3012 75.4033C60.5252 75.3193 60.7597 75.2773 61.0047 75.2773ZM60.8472 76.4324C60.5392 76.4324 60.2697 76.5094 60.0387 76.6634C59.8077 76.8174 59.6257 77.0274 59.4926 77.2934C59.3666 77.5524 59.3036 77.8499 59.3036 78.1859C59.3036 78.5149 59.3666 78.8159 59.4926 79.0889C59.6257 79.3549 59.8077 79.565 60.0387 79.719C60.2697 79.873 60.5392 79.95 60.8472 79.95C61.1552 79.95 61.4212 79.873 61.6452 79.719C61.8762 79.565 62.0547 79.3549 62.1807 79.0889C62.3137 78.8159 62.3802 78.5149 62.3802 78.1859C62.3802 77.8499 62.3137 77.5524 62.1807 77.2934C62.0547 77.0274 61.8762 76.8174 61.6452 76.6634C61.4212 76.5094 61.1552 76.4324 60.8472 76.4324ZM65.3196 81C65.1376 81 64.9871 80.9405 64.8681 80.8215C64.7491 80.6955 64.6896 80.5415 64.6896 80.3595V76.0228C64.6896 75.8408 64.7491 75.6903 64.8681 75.5713C64.9871 75.4453 65.1376 75.3823 65.3196 75.3823C65.5016 75.3823 65.6521 75.4453 65.7711 75.5713C65.8901 75.6903 65.9496 75.8408 65.9496 76.0228V77.0099L65.8761 76.3064C65.9531 76.1384 66.0511 75.9913 66.1701 75.8653C66.2961 75.7323 66.4361 75.6238 66.5901 75.5398C66.7441 75.4488 66.9086 75.3823 67.0836 75.3403C67.2586 75.2983 67.4337 75.2773 67.6087 75.2773C67.8187 75.2773 67.9937 75.3368 68.1337 75.4558C68.2807 75.5748 68.3542 75.7148 68.3542 75.8758C68.3542 76.1069 68.2947 76.2749 68.1757 76.3799C68.0567 76.4779 67.9272 76.5269 67.7872 76.5269C67.6542 76.5269 67.5317 76.5024 67.4197 76.4534C67.3146 76.4044 67.1921 76.3799 67.0521 76.3799C66.9261 76.3799 66.7966 76.4114 66.6636 76.4744C66.5376 76.5304 66.4186 76.6214 66.3066 76.7474C66.2016 76.8734 66.1141 77.0309 66.0441 77.2199C65.9811 77.4019 65.9496 77.6189 65.9496 77.8709V80.3595C65.9496 80.5415 65.8901 80.6955 65.7711 80.8215C65.6521 80.9405 65.5016 81 65.3196 81Z" fill="#EB4A4B"/>
<path d="M6 67.3912V81.9775C12.1335 82.3109 13.3979 79.3381 13.2634 77.81V71.5587C12.8599 71.5587 11.5686 71.392 9.63169 70.7252C7.69479 70.0584 6.40352 68.2247 6 67.3912Z" fill="#EB4A4B"/>
<path d="M6 67.3912V81.9775C12.1335 82.3109 13.3979 79.3381 13.2634 77.81V71.5587C12.8599 71.5587 11.5686 71.392 9.63169 70.7252C7.69479 70.0584 6.40352 68.2247 6 67.3912Z" fill="url(#paint0_linear_702_18)"/>
<path d="M13.2634 60.3066V51.5548C7.45268 51.2214 6 53.9164 6 55.3055V61.9736L14.8775 66.5578C16.4916 66.1411 19.0741 65.0575 16.4916 64.0573C13.909 63.0571 13.2634 61.1401 13.2634 60.3066Z" fill="#EB4A4B"/>
<path d="M13.2634 60.3066V51.5548C7.45268 51.2214 6 53.9164 6 55.3055V61.9736L14.8775 66.5578C16.4916 66.1411 19.0741 65.0575 16.4916 64.0573C13.909 63.0571 13.2634 61.1401 13.2634 60.3066Z" fill="url(#paint1_linear_702_18)"/>
<path d="M30.5 66.1385L30.5 51.5523C24.3665 51.2189 23.1021 54.1917 23.2366 55.7198L23.2366 61.1375C23.6401 61.1375 24.9314 61.3042 26.8683 61.971C28.8052 62.6378 30.0965 65.305 30.5 66.1385Z" fill="#EB4A4B"/>
<path d="M30.5 66.1385L30.5 51.5523C24.3665 51.2189 23.1021 54.1917 23.2366 55.7198L23.2366 61.1375C23.6401 61.1375 24.9314 61.3042 26.8683 61.971C28.8052 62.6378 30.0965 65.305 30.5 66.1385Z" fill="url(#paint2_linear_702_18)"/>
<path d="M23.2366 73.2233L23.2366 81.9751C29.0473 82.3085 30.5 79.6135 30.5 78.2244L30.5 71.5563L21.6225 66.9721C20.0084 67.3888 17.4259 68.4724 20.0084 69.4726C22.591 70.4728 23.2366 72.3898 23.2366 73.2233Z" fill="#EB4A4B"/>
<path d="M23.1663 73.2519L23.1663 82.0037C28.977 82.3371 30.4297 79.6421 30.4297 78.2529L30.4297 71.5849L21.5522 67.0006C19.9381 67.4174 17.3556 68.5009 19.9381 69.5011C22.5207 70.5013 23.1663 72.4184 23.1663 73.2519Z" fill="url(#paint3_linear_702_18)"/>
<path d="M6 62.3902V58.2227C7.61408 61.8901 10.7077 62.8069 12.0528 62.8069H23.3514C24.562 62.8069 26.5796 63.5571 28.1937 64.8907C29.8077 66.2243 30.4803 68.7804 30.6148 69.8917V75.3095C30.4803 74.7538 29.9692 73.3091 29.0007 71.9755C28.0323 70.6418 25.369 70.3084 24.1585 70.3084H13.6669C12.4563 70.3084 9.63169 69.8083 8.01761 67.8079C6.40352 65.8075 6 63.3626 6 62.3902Z" fill="#EB4A4B"/>
<path d="M6 62.3902V58.2227C7.61408 61.8901 10.7077 62.8069 12.0528 62.8069H23.3514C24.562 62.8069 26.5796 63.5571 28.1937 64.8907C29.8077 66.2243 30.4803 68.7804 30.6148 69.8917V75.3095C30.4803 74.7538 29.9692 73.3091 29.0007 71.9755C28.0323 70.6418 25.369 70.3084 24.1585 70.3084H13.6669C12.4563 70.3084 9.63169 69.8083 8.01761 67.8079C6.40352 65.8075 6 63.3626 6 62.3902Z" fill="url(#paint4_linear_702_18)"/>
<defs>
<linearGradient id="paint0_linear_702_18" x1="10.0352" y1="59.8614" x2="10.0352" y2="86.1168" gradientUnits="userSpaceOnUse">
<stop/>
<stop offset="1" stop-color="#EB4A4B" stop-opacity="0"/>
</linearGradient>
<linearGradient id="paint1_linear_702_18" x1="7.21056" y1="74.8646" x2="9.79169" y2="46.957" gradientUnits="userSpaceOnUse">
<stop/>
<stop offset="1" stop-color="#EB4A4B" stop-opacity="0"/>
</linearGradient>
<linearGradient id="paint2_linear_702_18" x1="26.8636" y1="72.364" x2="26.9911" y2="48.6092" gradientUnits="userSpaceOnUse">
<stop/>
<stop offset="1" stop-color="#EB4A4B" stop-opacity="0"/>
</linearGradient>
<linearGradient id="paint3_linear_702_18" x1="27.3164" y1="62.8073" x2="28.1771" y2="83.2258" gradientUnits="userSpaceOnUse">
<stop/>
<stop offset="1" stop-color="#EB4A4B" stop-opacity="0"/>
</linearGradient>
<linearGradient id="paint4_linear_702_18" x1="-2.87747" y1="61.9451" x2="31.8739" y2="67.0315" gradientUnits="userSpaceOnUse">
<stop/>
<stop offset="1" stop-color="#EB4A4B" stop-opacity="0"/>
</linearGradient>
</defs>
</svg>
